<svg width="1145" height="926" viewBox="0 0 1145 926" fill="none" xmlns="http://www.w3.org/2000/svg">
<path d="M444.739 681.081C457.041 681.081 465.719 657.812 467.073 645.967C468.447 639.578 469.362 633.189 469.82 626.799C470.278 620.429 470.735 614.039 471.174 607.65C473.463 577.095 468.447 546.54 457.041 516.901L454.314 510.054C453.856 507.784 454.771 506.411 456.583 505.038C459.787 503.207 463.888 501.852 467.989 500.937C476.648 497.733 483.953 494.547 492.612 490.447C501.29 485.888 509.949 481.33 518.608 476.771C527.286 472.652 535.946 468.093 544.605 463.993C545.978 463.077 547.809 462.162 549.163 461.265C550.536 460.807 552.367 459.892 553.722 458.976C556.01 457.603 556.926 455.334 556.01 452.587C555.553 449.86 553.722 448.486 550.536 448.486C550.079 448.486 550.079 448.486 550.079 448.486C549.621 448.944 549.621 448.944 549.163 448.944C545.52 450.317 541.877 451.672 538.215 453.503L488.969 478.583C481.225 482.684 473.005 486.804 464.346 489.074H462.973C461.599 489.074 460.684 489.074 460.245 488.616C457.956 487.262 458.414 484.973 459.787 483.142C461.142 479.957 462.973 476.771 465.261 472.652C469.362 465.824 474.378 458.061 479.394 449.86C502.187 414.289 549.621 333.095 554.637 292.05C556.01 286.576 555.553 282.018 550.079 278.833C549.621 278.375 548.705 278.375 547.351 278.375C536.861 278.375 520.897 303.456 510.865 321.251C501.29 338.569 487.596 367.312 484.411 375.513C452.94 453.96 427.402 534.677 423.759 619.971C423.301 630.461 424.655 640.951 426.028 651.441C427.402 661.474 433.791 681.081 444.739 681.081ZM445.635 666.49C444.739 666.49 443.823 666.032 442.908 664.659C439.265 657.812 438.349 651.441 436.976 644.594C434.707 626.799 435.603 608.565 437.892 590.77C439.723 571.163 441.992 551.556 447.466 533.323C451.109 535.592 452.025 538.339 452.483 540.609C456.125 553.387 458.872 566.147 459.33 580.28C460.684 600.822 459.33 621.783 456.125 642.305C454.771 650.984 453.398 657.812 448.382 664.659C447.924 666.032 447.009 666.49 445.635 666.49ZM476.19 436.623V435.708C476.648 436.165 477.106 436.623 477.563 436.623C475.294 433.438 476.19 430.253 477.563 427.048C491.696 386.461 506.764 347.247 530.014 310.761C531.387 308.472 533.199 305.745 534.572 302.54C535.946 299.813 538.215 297.982 541.877 297.066C543.251 300.271 543.251 303.456 541.877 306.202C540.504 308.93 539.589 311.676 538.673 314.404C522.27 357.737 501.748 397.867 477.563 436.623H476.19Z" fill="black"/>
<path d="M548.707 581.194C557.824 581.194 572.414 565.688 577.45 557.944C587.024 545.166 597.057 531.948 607.089 517.815C616.664 504.121 626.696 490.903 636.27 478.582C638.559 474.939 641.287 470.838 643.118 467.176C644.491 465.822 644.93 463.991 644.93 461.703C645.387 459.433 644.93 457.602 642.66 456.686C641.287 456.248 640.371 455.79 639.475 455.79C636.27 455.79 632.17 463.076 630.797 465.365C610.732 493.173 587.482 525.559 566.044 552.928C563.755 556.113 555.096 567.061 550.995 567.061C548.707 567.061 547.333 565.688 546.876 563.418C543.691 554.302 544.606 544.708 545.979 535.591C548.249 507.325 554.638 457.602 570.602 433.437C591.583 401.966 630.797 336.298 639.017 299.812C639.475 296.169 639.017 292.507 634.897 290.695C633.085 290.237 632.17 289.779 631.712 289.779C629.881 289.779 627.611 290.695 625.323 292.507C593.852 323.977 568.314 392.849 554.638 434.352C551.453 444.842 548.707 453.959 541.86 462.618C540.048 464.449 538.674 467.176 540.505 469.465C544.606 474.481 542.775 479.955 541.402 484.972C537.301 504.578 534.116 523.728 533.658 546.997C533.658 548.37 533.658 550.64 533.658 553.386C533.658 556.113 533.658 558.86 534.116 562.045C535.489 569.35 540.048 581.194 548.707 581.194ZM585.651 393.307C584.278 390.561 584.735 387.375 586.109 383.732C594.768 361.379 605.258 340.399 617.579 319.876C619.391 317.588 620.764 316.233 622.137 316.233C622.595 316.233 623.511 316.691 624.865 317.13C624.407 316.691 624.407 316.233 624.407 315.776C624.407 316.233 624.407 316.233 624.865 316.691V317.13L612.563 341.772C603.427 359.09 594.768 376.428 586.109 393.307C586.109 392.849 586.109 392.849 586.109 392.849C585.651 392.849 585.651 392.849 585.651 393.307Z" fill="black"/>
<mask id="mask0_101_11" style="mask-type:luminance" maskUnits="userSpaceOnUse" x="116" y="0" width="895" height="323">
<path d="M116.697 0.494141H1010.23V322.75H116.697V0.494141Z" fill="white"/>
</mask>
<g mask="url(#mask0_101_11)">
<path fillRule="evenodd" clipRule="evenodd" d="M563.461 0.589844C693.577 0.589844 811.352 53.479 896.608 138.983C947.513 190.022 986.823 252.696 1010.23 322.693H1003.36C980.185 254.508 941.715 193.436 892.011 143.599C807.938 59.2772 691.765 7.11278 563.461 7.11278C435.158 7.11278 318.985 59.2772 234.911 143.599C185.226 193.436 146.737 254.508 123.564 322.693H116.697C140.119 252.715 179.428 190.041 230.315 138.983C315.571 53.479 433.365 0.589844 563.461 0.589844Z" fill="black"/>
</g>
<mask id="mask1_101_11" style="mask-type:luminance" maskUnits="userSpaceOnUse" x="116" y="604" width="895" height="322">
<path d="M116.697 604.516H1010.23V925.856H116.697V604.516Z" fill="white"/>
</mask>
<g mask="url(#mask1_101_11)">
<path fillRule="evenodd" clipRule="evenodd" d="M563.461 925.762C693.577 925.762 811.352 872.872 896.608 787.369C947.513 736.329 986.823 673.656 1010.23 603.658H1003.36C980.185 671.844 941.715 732.915 892.011 782.753C807.938 867.074 691.765 919.239 563.461 919.239C435.158 919.239 318.985 867.074 234.911 782.753C185.226 732.915 146.737 671.844 123.564 603.658H116.697C140.119 673.637 179.428 736.31 230.315 787.369C315.571 872.872 433.365 925.762 563.461 925.762Z" fill="black"/>
</g>
<mask id="mask2_101_11" style="mask-type:luminance" maskUnits="userSpaceOnUse" x="811" y="454" width="334" height="63">
<path d="M811.105 454.488H1144.35V516.742H811.105V454.488Z" fill="white"/>
</mask>
<g mask="url(#mask2_101_11)">
<path fillRule="evenodd" clipRule="evenodd" d="M816.084 483.078C821.138 476.765 831.285 468.354 842.92 462.861C854.573 457.368 867.772 454.85 882.61 454.984C897.43 455.117 913.871 457.94 933.916 464.119C953.981 470.299 977.67 479.855 998.822 487.846C1019.99 495.838 1038.66 502.303 1056.5 504.554C1074.31 506.805 1091.31 504.84 1104.2 499.69C1117.05 494.522 1125.81 486.168 1130.98 479.95C1136.15 473.732 1137.73 469.67 1139.5 466.237C1141.22 462.803 1143.11 459.981 1143.91 460.19C1144.69 460.4 1144.42 463.624 1143.05 468.144C1141.66 472.664 1139.18 478.5 1132.68 485.767C1126.15 493.015 1115.55 501.731 1104.68 507.472C1093.82 513.232 1082.65 516.055 1067.35 516.189C1052.02 516.322 1032.54 513.804 1012.9 508.483C993.252 503.124 973.455 494.999 953.809 486.587C934.164 478.195 914.653 469.46 895.809 466.027C876.907 462.594 858.674 464.425 844.789 470.089C830.904 475.754 821.386 485.309 816.446 490.555C811.564 495.838 811.278 496.81 811.144 495.208C811.011 493.606 811.011 489.41 816.084 483.078Z" fill="black"/>
</g>
<path d="M376.371 149.699L383.695 162.135L400.25 152.446L402.005 155.345L385.45 165.034L393.384 178.614L390.027 180.597L371.336 148.784L393.155 135.967L394.834 138.866L376.371 149.699Z" fill="black"/>
<path d="M459.094 143.951L460.315 147.079L435.978 156.463L422.703 121.979L446.354 112.824L447.574 115.952L427.51 123.658L432.24 135.941L450.168 129.074L451.389 132.202L433.46 139.069L438.343 151.886L459.094 143.951Z" fill="black"/>
<path d="M517.778 96.1562L524.339 132.471L520.677 133.081L515.413 103.938L505.571 131.022L503.664 131.403L485.049 109.66L490.237 138.574L486.575 139.261L480.014 102.946L483.142 102.412L503.817 126.444L514.574 96.6903L517.778 96.1562Z" fill="black"/>
<path d="M554.696 93.7344L558.586 93.8107L558.434 127.379L579.109 127.455V130.812L554.543 130.66L554.696 93.7344Z" fill="black"/>
<path d="M619.741 136.077C616.174 135.467 613.065 134.094 610.433 131.958C607.782 129.821 605.874 127.208 604.711 124.1C603.529 121.01 603.281 117.691 603.948 114.182C604.558 110.672 605.932 107.678 608.068 105.179C610.242 102.7 612.951 100.907 616.155 99.8388C619.397 98.7326 622.811 98.4656 626.378 99.0759C629.983 99.7435 633.092 101.136 635.685 103.272C638.279 105.37 640.149 107.983 641.331 111.13C642.494 114.239 642.781 117.539 642.17 121.048C641.503 124.557 640.072 127.571 637.898 130.05C635.762 132.53 633.092 134.323 629.887 135.391C626.721 136.497 623.345 136.726 619.741 136.077ZM620.351 132.644C623.25 133.14 625.958 132.968 628.514 132.11C631.051 131.252 633.187 129.802 634.923 127.762C636.639 125.683 637.764 123.222 638.279 120.361C638.775 117.519 638.585 114.83 637.669 112.274C636.792 109.738 635.323 107.602 633.244 105.866C631.146 104.149 628.667 103.024 625.768 102.509C622.868 102.013 620.141 102.204 617.604 103.119C615.049 103.997 612.912 105.465 611.196 107.544C609.46 109.585 608.335 112.026 607.839 114.868C607.324 117.729 607.496 120.419 608.373 122.955C609.289 125.511 610.776 127.647 612.874 129.364C614.953 131.042 617.452 132.129 620.351 132.644Z" fill="black"/>
<path d="M706.509 123.286L678.205 152.048L674.619 150.675L672.254 110.393L676.145 111.842L678.205 146.784L702.847 121.836L706.509 123.286Z" fill="black"/>
<path d="M739.731 179.109L738.053 182.008L715.471 168.886L734.086 136.996L755.982 149.737L754.303 152.636L735.764 141.879L729.127 153.246L745.682 162.859L744.004 165.758L727.448 156.145L720.506 167.971L739.731 179.109Z" fill="black"/>
<path d="M376.012 761.132C377.633 762.963 378.53 764.889 378.682 766.93C378.873 768.952 378.263 770.993 376.851 773.033C375.02 775.57 372.655 776.867 369.756 776.924C366.857 776.962 363.538 775.665 359.838 773.033L345.953 763.192L367.315 733.133L380.361 742.364C383.717 744.767 385.816 747.285 386.693 749.917C387.608 752.568 387.189 755.105 385.472 757.546C384.252 759.186 382.821 760.293 381.2 760.903C379.56 761.513 377.843 761.59 376.012 761.132ZM368.688 737.939L360.906 748.849L370.443 755.715C372.922 757.451 375.173 758.347 377.156 758.385C379.14 758.385 380.761 757.47 382.039 755.639C383.298 753.865 383.603 752.053 382.955 750.222C382.287 748.353 380.704 746.541 378.224 744.805L368.688 737.939ZM361.593 770.363C364.282 772.29 366.647 773.281 368.688 773.339C370.767 773.377 372.522 772.442 373.952 770.516C376.584 766.739 375.173 762.906 369.68 758.996L359.075 751.443L350.988 762.81L361.593 770.363Z" fill="black"/>
<path d="M416.565 791.217L411.072 802.737L407.562 801.058L413.056 789.538L410.233 761.387L413.971 763.218L416.412 787.402L436.859 774.204L440.368 775.882L416.565 791.217Z" fill="black"/>
<path d="M497.607 796.653L495.013 810.919L513.857 814.352L513.247 817.633L494.403 814.2L491.504 829.687L487.689 828.924L494.403 792.609L519.274 797.263L518.664 800.544L497.607 796.653Z" fill="black"/>
<path d="M569.573 836.973L561.257 824.995C560.284 825.052 559.293 825.071 558.282 825.071L548.364 824.919L548.211 836.667L544.32 836.591L544.854 799.666L558.663 799.895C563.393 799.952 567.074 801.116 569.725 803.404C572.357 805.693 573.654 808.821 573.616 812.788C573.559 815.649 572.796 818.052 571.328 820.036C569.84 822.019 567.742 823.431 564.995 824.232L573.845 837.049L569.573 836.973ZM558.282 821.791C561.944 821.848 564.728 821.085 566.674 819.502C568.657 817.881 569.668 815.611 569.725 812.712C569.764 809.717 568.829 807.41 566.903 805.769C565.014 804.148 562.249 803.309 558.587 803.252L548.745 803.099L548.44 821.638L558.282 821.791Z" fill="black"/>
<path d="M627.654 821.036L607.361 824.317L604.461 834.692L600.418 835.379L611.251 796.241L615.066 795.631L637.648 829.428L633.529 830.038L627.654 821.036ZM625.671 818.061L613.845 799.903L608.123 820.883L625.671 818.061Z" fill="black"/>
<path d="M683.524 776.512L695.884 811.301L692.832 812.445L660.484 792.152L670.478 820.379L666.74 821.676L654.381 786.887L657.433 785.819L689.933 806.037L679.862 777.809L683.524 776.512Z" fill="black"/>
<path d="M749.907 780.034L751.585 782.933L725.264 797.886L723.968 795.597L729.995 756.536L709.014 768.437L707.336 765.538L732.817 751.119L734.114 753.484L728.164 792.393L749.907 780.034Z" fill="black"/>
<path d="M754.541 735.703L757.593 733.338L780.022 762.634L776.971 764.999L754.541 735.703Z" fill="black"/>
<mask id="mask3_101_11" style="mask-type:luminance" maskUnits="userSpaceOnUse" x="0" y="454" width="334" height="63">
<path d="M0.734375 454.488H333.976V516.742H0.734375V454.488Z" fill="white"/>
</mask>
<g mask="url(#mask3_101_11)">
<path fillRule="evenodd" clipRule="evenodd" d="M5.71284 483.078C10.7672 476.765 20.914 468.354 32.5675 462.861C44.202 457.368 57.4195 454.85 72.2392 454.984C87.0588 455.117 103.5 457.94 123.564 464.119C143.61 470.299 167.299 479.855 188.47 487.846C209.621 495.838 228.313 502.303 246.127 504.554C263.941 506.805 280.935 504.84 293.828 499.69C306.683 494.522 315.438 486.168 320.607 479.95C325.775 473.732 327.378 469.67 329.132 466.237C330.849 462.803 332.737 459.981 333.538 460.19C334.339 460.4 334.053 463.624 332.68 468.144C331.307 472.664 328.808 478.5 322.304 485.767C315.781 493.015 305.177 501.731 294.305 507.472C283.453 513.232 272.295 516.055 256.979 516.189C241.645 516.322 222.171 513.804 202.526 508.483C182.881 503.124 163.083 494.999 143.438 486.587C123.793 478.195 104.282 469.46 85.4376 466.027C66.5364 462.594 48.3027 464.425 34.4176 470.089C20.5325 475.754 11.0151 485.309 6.0943 490.555C1.19256 495.838 0.925534 496.81 0.772951 495.208C0.639439 493.606 0.639438 489.41 5.71284 483.078Z" fill="black"/>
</g>
</svg>
